M48
;Layer_Color=9474304
;FILE_FORMAT=2:5
INCH,LZ
;TYPE=PLATED
T4F00S00C0.02559
T8F00S00C0.03543
;TYPE=NON_PLATED
%
G90
G05
T04
G00X0005217Y0020394
M15
G01X0007579
M16
G00X0020689Y0020394
M15
G01X002502
M16
G00X0020689Y0054409
M15
G01X002502
M16
G00X0005217Y0054409
M15
G01X0007579
M16
T08
G00X0799248Y0038936
M15
G01Y0038917
M16
G00X0799248Y0046817
M15
G01Y0046797
M16
G00X0799248Y0054686
M15
G01Y0054667
M16
G00X0809097Y0050747
M15
G01Y0050726
M16
G00X0809097Y0042876
M15
G01Y0042856
M16
G00X0809097Y0035006
M15
G01Y0034986
M16
G00X0031004Y0089561
M15
G01Y0089581
M16
G00X0031004Y0097431
M15
G01Y0097451
M16
G00X0031004Y0105311
M15
G01Y0105331
M16
G00X0021154Y0109241
M15
G01Y0109261
M16
G00X0021154Y0101371
M15
G01Y0101391
M16
G00X0021154Y0093501
M15
G01Y0093521
M16
M17
M30
