M48
;Layer_Color=9474304
;FILE_FORMAT=2:5
INCH,LZ
;TYPE=PLATED
T1F00S00C0.00787
T2F00S00C0.00984
T3F00S00C0.01968
T5F00S00C0.02756
T6F00S00C0.03504
T7F00S00C0.03543
T9F00S00C0.03937
T10F00S00C0.04016
T11F00S00C0.04331
T12F00S00C0.05118
T13F00S00C0.05512
T14F00S00C0.06417
T15F00S00C0.07480
T16F00S00C0.07874
T17F00S00C0.09987
;TYPE=NON_PLATED
T18F00S00C0.02756
T19F00S00C0.09087
T20F00S00C0.09843
T21F00S00C0.12795
T22F00S00C0.15748
%
T01
X0018701Y0030512
X0031496Y0021654
X0046752Y0017717
X0050217Y0024606
X0053642Y003248
X0064468Y0019685
X0108268Y0024114
X0110236Y0031496
X0126969Y0031004
X0153543
X0179134Y003002
X0206201Y0029528
X022441Y0026083
X0228346Y0031004
X0234744Y0032972
X0235236Y0027067
X0235728Y0020177
X0517224Y0021654
X0822835Y017126
X0799176Y0158993
X0784941Y0156988
X0785433Y0174705
X0784941Y0185039
X0770669
X0761319Y0178642
X0752461Y0175197
X0748524Y0181595
X074065Y0182087
X0736221Y0181595
X0731299
X0723622Y018189
X071998Y0183563
X0713583Y0184055
X071752Y0164862
X0735236
Y0169783
X0744587Y0168799
X0741634Y0161417
X0744691Y0155989
X0748524Y0155355
X0751968Y015748
X0735236Y0158957
X073376Y0148302
X0742126Y0148165
X0744587Y0138779
X0749016Y0139764
X073376Y0137795
X0729331Y0131398
X0718012Y013189
X072325Y0118709
X0731644Y0116431
X0733063Y0104424
X072979Y0104013
X0723425Y0103347
X071907Y0104481
X0717054Y0110214
X0710895Y0105673
X0707185Y0097933
X0715551
X072687Y009498
X0725603Y0091006
X0727469Y0087915
X070771Y0088862
X0697342Y0095472
X06875Y0096457
X0687992Y0089075
X06875Y0084646
X0683278Y0081265
X0685747Y0077612
X0686038Y0074658
X0687992Y0072342
X0691238Y0054487
X0674513Y0049146
X0668583Y0048609
X0662506Y004888
X06765Y0082073
X0671881Y0094805
X0667813Y0103101
X0668307Y0119095
X0663386Y0132874
Y0156496
X0672244Y0175689
X069439Y0161417
X0704144Y0117612
X0707942Y0116912
X0697835Y0108268
X068268Y0108143
X0745571Y0105807
Y0116634
X0751746Y011537
X0750627Y0120333
X076246Y0120968
X0769758Y0121596
X0767677Y0130298
X076128Y0129806
X0766019Y0103959
X0764895Y0098519
X0764764Y0076772
X0770177Y0073327
X0780339Y0073607
X0779528Y0069882
X0786417
X0761319Y0065945
X0764272Y0059547
X0756359Y0059715
X0747213Y0051517
X0736713Y0060039
X0749508Y0070374
X0747539Y0073819
X0755783Y0082292
X0778051Y0046752
X0767224Y0160433
X0764272Y0168799
X0761319Y0166339
X0800689Y0185039
X065748Y0184055
X0658069Y0178862
X0657903Y0170454
X0657986Y0161797
X065782Y01532
Y0144066
X0651576Y0135908
X0639631Y0148605
X0627313Y0153711
X0614026Y0146507
X0612697Y0160433
X0604708Y0160513
X0600394Y0156004
X0598917Y0139272
X0588583Y013435
X0583169Y0128937
X0581693Y0125
X0577264Y0128445
X0564468Y0125984
X0566437Y0122047
Y0109744
X0562992Y0111221
X0566437Y0100394
X0571358Y0098425
X0578248Y0102362
X0585138Y009252
X0593916Y0092733
X0591535Y0086122
X0590185Y0078322
X0596457Y0080709
X0606835Y0081987
X0611972Y0089529
X0611713Y0093596
X0608434Y0099969
X0619587Y0097441
X0629678Y0099235
X0629917Y0092206
X0643761Y0093489
X0645669Y0106791
X0652221Y0108713
X0652339Y0104296
X0638779Y0111713
X0636991Y0116913
X0630413Y0124016
X0616634Y0128445
X0613189Y0122539
X0624016Y0109252
X0599902Y0110728
X0601609Y0069904
X0605807Y0068898
X0607414Y0063354
X0614813Y0058721
X0619769Y0059934
X0621354Y0049172
X0622866Y0046618
X0627029Y0049106
X0635176Y0044231
X0611571Y0043096
X0605461Y0044395
X0609787Y0049741
X0595965Y0056595
X0593504Y0068405
X0587106Y0067421
X0580709Y0077756
X0584154Y0083169
X0571358Y0077756
X0552658Y0079232
X055561Y0093504
X0541831Y0111221
X0544783Y0128445
X0539396Y0130089
X0535433Y0129253
X0537948Y0136368
X0531496Y0137795
X0530512Y0144685
X0537572Y0145375
X0554626Y0144193
X0565453Y0140256
X0564468Y0133366
X0557128Y0129942
X0524606Y0130905
X0524114Y0134843
X0513802Y0140793
X0508858Y0141732
X0510827Y0129429
X0522146Y0108268
X0516732Y0077756
X0519193Y0061516
Y0050197
X0513779Y0037894
X0510335Y003937
X0531496Y005561
X0535433Y0067421
X0543307Y0068405
X054626Y0057087
X0559547Y0060532
X0557579Y0050689
X0576768Y0056432
X0584154Y0044291
X0592048Y0038353
X0620912Y0080621
X0623132Y0082933
X0633137Y0075607
X0647763Y0063562
X0656061Y0071534
X0656527Y0049506
X0651575Y0176181
X0638867Y0171803
X0630905Y0187008
X0622047Y0180118
X0612697Y0178642
X0603839Y0179134
X0579724Y0184055
X0539305Y0176893
X0534941Y0167815
X0520669Y017815
X0514272Y018061
X0509315Y0162243
X0517717Y0159941
X0492618Y0158957
X0493602Y0167067
X0497507Y0167522
X049065Y0180465
X0479823Y0181102
X0476378Y0188484
X0468012
X0465059Y0189469
X046063Y01875
X0457677Y0189469
X0455709Y0181102
X0449803
X0446358Y0187992
X0433071Y018061
X0425689
X0417815Y0188484
X0408465Y0187992
X0406988Y0181102
X0397146Y018061
X0390256Y0188484
X0376657Y0180742
X0369094Y018061
X0355807Y0180118
Y01875
X0349902Y0168799
X0356299Y0161909
X0359744Y0157972
X0353839Y015502
Y0150591
X0352362Y0146653
X035187Y0133366
X0366142Y0140256
X0369587Y0137303
X0374508Y0139764
X0376969Y0135827
X0387303Y0139272
X0398622Y0139764
X0401575Y0136319
X0413878Y0138779
X0419783Y0134843
X0425689Y0136811
X0429134Y0133858
X0427165Y0146161
X0420276Y0145177
X0417323Y0146161
X0406988
X0400098Y0153543
X0391732Y0162402
X0406496Y0167815
X0423721Y0158465
X0439468Y0139254
X044439Y0134843
X0453248Y0138779
X0454232Y0146653
X0463012Y0144712
X046752Y015748
X0479823Y0158465
X0484252Y0139272
X0492126Y0137303
X0503937Y0141732
X0500492Y0110236
X0499508Y0090551
X048376Y010187
X0456201Y010975
X0449311Y0108268
X0447933Y0101279
X0438976Y0109744
X0437992Y007874
X0428642Y0077264
X0429134Y0081693
X0424478Y0085319
X038935Y0084646
X0383372Y0083186
X0378109Y0079166
X0388779Y0077264
X0398015Y0059924
X0368602Y0061516
X0366634Y0052658
X0363681Y0044291
X0356299Y0041339
X0352854Y0043307
X0353839Y0061516
X035876Y0067421
X0361713Y007874
X035935Y0084646
X0356894Y0088027
X036858Y0112817
X0377461Y0105315
X039432Y0109045
X0400591Y0110929
X039813Y0102362
X0447107Y0069592
X0452264Y0062008
X0474902Y007185
X0473425Y0050197
X0499016Y0044291
X0504429Y0042323
X045374Y0165354
X0369094Y0156988
X0346949Y0162402
Y0146653
X0334646Y0138287
X0325787Y0136319
X032185Y0138779
X0315222Y0139995
X0308519Y0139228
X0295768Y0139272
X0281004
X0284449Y0146161
X0278738Y0150098
X0275819Y0150639
X027305Y0149569
X0265748Y0143209
X0264272Y013435
X0272638Y0126476
X0274114Y011681
X0267732Y0117634
X0267717Y0114665
X0270021Y0112734
X0264764Y0107283
X0258858Y0110236
X0255906Y0112205
X0248524
X0252953Y0097441
X024311Y0096457
Y0086614
X0230807Y0089567
X0227854Y0092028
X0230315Y0098425
X0231299Y0106299
X0227854Y0117126
X0209646Y0116634
X0211122Y0107776
X0203248Y010876
Y0101378
Y0096949
X0202756Y0093012
X0198819Y0090551
X0195866Y0104331
X0194882Y0113681
X0197343Y013435
X0195837Y013851
X0196358Y0152559
X0201772Y0153051
X0207185Y0149606
X0212106Y0134843
X0236024Y0148425
X023937Y0148327
X0248524Y014813
X025Y0153051
X0253937Y0152067
X0246555Y015748
X0244094Y015502
X0242618Y0161909
X025Y0163386
X0234252Y0158957
X0227854Y0157972
X0213583Y01875
X0204724Y0181102
X0199311Y0175689
X0196613Y0184309
X028691Y0187008
X0300689Y0187992
X0298755Y0174705
X0298228Y0167815
X0291831
X0294291Y016437
Y0157972
X0307579Y015502
X0317421Y0157972
X0313976Y0165354
X032185Y0169291
X0326279Y0169783
X0327264Y0177657
X0331693Y0181084
X0331201Y01875
X0322372Y0181282
X0309055Y0177657
X030315Y0169291
X0281102Y0171025
X0331201Y0159941
X0347441Y0103839
X0313976Y0103347
X0297736Y0102854
X0293307Y010187
X0294291Y0110236
X0299213Y0109252
X0292323Y0118602
X0283465Y009941
X0280512Y0089075
X0289492Y008809
X028951Y0085122
X0291339Y0071358
X0294291Y0070374
X0298721Y0067913
X0304134Y006939
X03125Y0067421
X0318898Y0069882
X0326772Y0067913
X0325787Y0062992
X0332185Y0070866
X0341043Y0067913
X0345472Y0069882
X0346949Y00625
X0327756Y0043307
X0320866Y0042815
X0295768Y0042323
X0291831Y0043307
X0281538Y0045181
X0278543Y0051181
X0287402Y005315
X0285662Y0068048
X0283465Y0070374
X028248Y0074541
X0279035Y0072342
Y0079232
X027559Y0080709
X0271654Y0087598
X0265748Y0086122
Y0077756
Y0073819
X0262795Y0070866
X0264764Y0066929
X0265736Y0061523
X0271161Y0062992
X0278543Y0064468
X0268701Y0050197
X0259842Y0051181
X0274606Y0042323
X0236713Y0040846
X0235236Y0047736
X0228346Y0050689
X0225886Y0053642
X0220965Y005561
X0222933Y0046752
X0216142Y0047048
X021752Y0037894
X021063
X020374Y0036909
X0200787Y0049213
X0196358Y005315
X0207116Y0052767
X0208661Y0069372
X0214567Y0067421
X0227854Y0067913
X0244587Y0068898
X0250915Y0074311
X0253937Y0081693
X025935Y0082677
X0270177Y0095472
X0230174Y0084125
X0216043Y0100886
X0225394Y0036417
X0188484Y0037894
X0185039
X0190453Y0041339
X0177165Y0040354
X017126Y0038878
X0169783Y0047736
X0174705Y0052165
X0185531Y0052658
X0188484Y0054626
X0182087Y0070866
X0183071Y0073819
X0181102Y0084646
X0185039Y0095472
X0190945Y0097441
X0187877Y0103839
X018497Y0104441
X0185039Y0107776
X01875Y0114665
X0182722Y0115873
X0170276Y0119095
Y0111713
X0167323Y0110236
X0162894Y0120571
X015748Y0121063
X0158957Y0097933
X0155512Y0098194
X0150591Y0096457
X0154035Y0089075
X0161909Y008809
X0144193Y0091043
Y0100886
X0136811Y0096949
X0129921
X0121063Y0098425
X0120571Y0093996
X0117126Y0099902
X0114665Y0106791
X0106791Y0107776
X0099902Y010876
X0096457Y0101683
X0104823Y0098425
X0113681Y0090059
X0111707Y0087106
X0114173Y0080709
X0119095
X0122539Y0081201
X0123031Y0085138
X0126969Y0086614
X0133366
X0133858Y0077264
X013089Y0076772
X0128445Y0074803
X0125984Y0072342
X0126969Y006939
X0126398Y0063898
X0119095Y0065453
X0113189Y00625
X010876Y0061024
X0104823Y0064468
X0100394Y0063976
X0097933Y0058563
X0100394Y0054134
X0102813Y0049234
X0120079Y0052658
X0132423Y005116
X0132382Y0042815
X0143209Y0039862
X0147638Y0042323
X0160925Y0043799
X0162894Y0050689
X0163386Y0061024
X0150098Y0056595
X0141632Y0067442
X0149114Y0076279
X0113189Y0074803
X0109252Y0075295
X0100394Y0079232
X0102854Y0082677
X0096457Y0081693
X0086614Y0076772
X0077264
X0077756Y0096457
X0089075Y0090551
X0086595Y010876
X0090059Y0110728
X0087008Y0116111
X0090551Y0120571
X0097441Y0121063
X0100758Y0123639
X0111713Y0117618
X0114665Y0131398
X0116634Y0137795
X0121555Y0143209
X0114665Y0147638
X0111221Y015748
X0104331Y0152559
X0095472Y0160925
X0105807Y0172736
X0111221Y0177165
X0118602Y0172244
X0126476Y0172736
X0138779Y0162402
X0156496
X0160925Y0165354
X0164862Y0167323
X0168307Y0156004
X0175197Y0156496
X0177165Y0159449
X0174705Y0151083
X017126
X0166831Y0150098
X0182579
X0189469Y0149606
X0187008Y0162894
X0186707Y0176027
X0190945Y0177657
X0189113Y0179993
X0179626Y0176673
X0176814Y0178482
X0182041Y01732
X017815Y0189469
X0169783
X0162894
X0156004Y0187992
X0149114Y0185531
X0167815Y0184547
X0192405Y0128445
X0125Y0127084
X0130413Y011565
X0139764Y0111713
X0134843Y0106299
X0108268Y0135335
X0091043Y0140425
X008809Y0132874
X0077756
X0071841Y0130791
X0065945Y013189
X0060039Y0132382
X0063247Y0124964
X006526Y0120349
X0063471Y0117143
X0072043Y0117671
X0069694Y0123777
X007467Y0124132
X0084153Y0123031
X0076279Y0139764
X0077264Y0147638
X0066929Y016437
X0061024Y0163386
X0068405Y0173228
X0067913Y0184055
X006939Y0109252
X0051059Y010953
X0044291Y0108268
X0052658Y0091043
X0054134Y0086614
X005561Y0077264
X0053642Y0070866
X0045684Y0070074
X0037894Y0075787
X0049705Y0037894
X0060532Y0037894
X0037894Y0133366
X0029972Y0123902
X0017224Y0132874
X0010335Y0160433
X001002Y0165039
X0010335Y0169291
Y0173721
Y017815
X0023622Y0074803
X0030512Y005315
X0020669Y0042323
X0021654Y0262795
X0026575Y0266732
X003002Y0323819
X0030331Y0340059
X0040256Y033286
X0053736Y0326003
X0060039Y0334154
X0078976Y0332837
X0080178Y032022
X0078522Y0309421
X0079724Y0306594
X0085185Y030909
X0090778Y0305339
X0093996Y0312992
X0098425Y0322835
X0105315Y0320866
X0110236Y03125
X0113237Y0305287
X0117466Y0291127
X0122047Y0285433
X011811Y0277559
X0108268Y027313
X0107776Y0263287
X0105807Y0256398
X0108268Y0249508
X0123524Y0248524
X0134574Y0244788
X0131398Y025935
X0127953Y0260335
X0150098Y0261319
Y0257382
Y0251476
X0156496Y024311
X0161784Y0231145
X0149114Y0230315
X0140691Y0231094
X014124Y0221457
X0134843Y0218504
X0130905Y0223425
X0118602Y022687
X0115419Y02155
X0104823Y0212106
X0097441Y0207185
X0084153Y021309
X0080709Y0210138
X0079232Y0224902
X0083169Y022441
X006939Y0225394
X0066929Y0239665
X0079232Y0248031
X0091535Y0255906
X0094488Y0263287
X0088583Y0277559
X0088074Y0291127
X008352Y0291173
X0078534Y0268969
X0060532Y0268209
X0053671Y026835
X0060039Y025689
X0059162Y0309662
X0089567Y0326279
X0097441Y0331693
X0095965Y0340059
X0093504Y0339567
X0093012Y034252
X0089567Y0344221
X0100394Y0340059
X0122539Y0329724
X0128023Y0334106
X0135827Y0340059
Y0325295
X0150591Y0324311
X0152559Y0333169
Y0339075
X0154035Y0344488
X0167323Y0302165
X0169783Y0291831
X016021Y0292272
X0164216Y0285279
X0164006Y0276077
X0149956Y0277003
X0146436Y0285791
X0149606Y0291339
X0141732Y0289862
X0135335Y0285925
X0132382Y0279528
X0154528Y0261811
X0166339Y0261319
X0169291Y0261811
X0175394Y0237713
X0190453Y0236221
X0185531Y0230807
X0180118Y0222441
X0176181Y0216043
X018061Y0208169
X0178642Y0202264
X018422Y0198327
X0190945Y019685
X0186024Y0205217
X0187008Y021309
X0167815Y0211122
X0169291Y0204232
X0159449Y0206201
X0150092Y0206687
X0147638Y0203248
X0144685Y020374
X0133366Y0204724
X0113189Y0202756
X0112205Y0197343
X0104823Y0192421
X0072342Y0197343
X0068405Y0206201
X0099902Y0234744
X0111713Y0235728
X0151575Y0222441
X0151083Y0195866
X0148622Y0193898
X0154528
X0142717Y0190453
X0180118Y0284941
X0201772Y0283465
X0203248Y0276083
X0213583Y028002
X0220965
X0230807Y0276083
X023376Y0282972
X0232776Y0286417
X0235236Y0291339
X0237697Y0293799
X0239173Y0288878
X0234744Y0299705
X0226378Y0308563
X0220965
X021309Y0309547
X0206693Y0308563
X0211614Y0295276
X021309Y0254921
X021752Y0257382
X0220965Y0252461
X0230315Y0248031
X0232776Y0254921
X0234252Y0259842
X0238189Y0262303
X0242618Y0260335
X0260827Y0270177
X0262795Y0276083
X0278051Y028691
X0285925Y0290354
X0284449Y0281988
X0297244Y027559
Y0267717
X0290846Y0257874
X0288386Y0254921
X0270669Y025689
X0278543Y0231299
X0274606Y0220472
X0268701Y0223425
X0270669Y0206201
X0268701Y0203248
X0262303Y020374
X0258366Y0189961
X0246555Y0193898
X024311Y0206201
X0240158Y0210138
X0236713Y0209646
X0229331Y0219488
X0232283Y0226378
X021998Y0223917
X0211614Y0228839
X0212598Y0232776
X021309Y024311
X020374Y0246555
X0199311Y0234744
X0196358Y0230315
X0203248Y0222441
X0198327Y0217028
X0195374Y0195866
X0211614Y0197343
Y0190453
X021752Y0206201
X0250984Y021309
X0247047Y0220965
X0278543Y0211122
X0289862Y021063
X0287894Y0204232
X029626
X0305118Y0206693
X0316929Y0207677
X032185Y0204232
X0318898Y0197835
X0327264Y0193898
X0324311Y0190945
X0334154Y0189961
X0343012
X0346457Y019439
X0336614Y019685
X0340551Y0203248
X0332677Y0225394
X0322835Y0216535
X0323327Y0247539
X0343012Y0248031
X0339075Y0259842
X0334154Y0271654
X0329232Y0270177
X0326279Y0276083
X0339567Y028002
X0343012Y0287402
X0341043Y0295768
X0332185Y0315453
X0333661Y0328248
X0310531Y0343012
X0310933Y0297276
X0307087Y0292815
X0298721Y0305118
X0291339Y0307087
X0284449Y0306102
X0277559Y030561
X0271161Y0299705
X0267717Y0334154
X024311Y0330217
X022559
X022687Y0335138
X0198819Y0343504
X0193898Y025935
X029626Y0222933
X0291831Y0189961
X0281004Y0191437
X0274606Y019439
X0351378Y0193405
X0363189Y0190453
X0368602Y019439
X0379921Y0192913
X0385335Y0193898
X0378445Y020374
X0362205Y0204232
X035876Y0222933
X0369094Y021998
X0394685Y022441
X0396161Y020374
X0403543Y0203248
Y019439
X042126Y0193405
X0429626Y0192421
X0439468Y0191437
X0440453Y0203985
X0433071Y020374
X0451772Y0203248
X0458169Y0193405
X0472158Y0200086
X0472441Y0205217
X0479823Y0214567
X0480807Y021998
X0482283Y022441
X0481791Y0229331
X047687Y022687
X0475394Y0219488
X0495571Y0222441
X0503424Y0221065
X0501476Y0201279
X0495571
X0504921Y0189961
X0496063Y0237205
X0488681Y0237697
X0494587Y0251476
Y0257382
Y0263287
Y0269193
X0500492
Y0263287
Y0257382
Y0251476
X0504429Y0247539
X0464075Y0254429
X0452756Y0247047
X0436024Y0246555
X0415354Y0247047
X0412402Y0260335
X0399114Y025689
X0397146Y0247047
X0384842Y0247539
X0392717Y0262795
X0393701Y0293799
X0387795Y0297244
X0408465
X0412402Y028937
X0411909Y0306102
X0405512
X0420276Y030561
X0425689
X0425197Y0276575
X0431595Y0228346
X0446358Y0222933
X0456201Y0230315
X0413386Y0204232
X0360728Y0247047
X0359744Y0269685
X034941Y0273013
X0352854Y028002
X0359744Y0283465
X0352362Y0290846
X0349902Y0288386
X0363189Y029626
X0370571Y0326279
X0366634Y0331201
X0360236Y0337598
X0352854Y0331201
X0395669Y0341043
X0433071
X0434055Y0344488
X0471457Y0316437
X0488189Y0329232
X0498524
X034941Y0259842
X0506398Y0257382
Y0263287
Y0269193
X0512303
Y0263287
Y0257382
Y0251476
X0506398
X0510827Y0243602
X0518701Y0251969
X0524606Y0250492
X0532972Y025689
Y0262795
Y0268701
X0538878
Y0262795
Y025689
X0538386Y0251969
X0544783Y025689
Y0262795
Y0268701
X0546752Y0273622
Y0280512
X0541831Y0277953
X0536909Y0280512
Y0273622
X0549705Y0252461
X0556595Y0249508
X05625Y0233268
X0558563Y0229331
X0543799Y0233268
X053937Y023376
X053432Y0228032
X0533465Y0221358
Y0216634
X0537795Y0218996
X0529134
X0523622Y0213583
X0525098Y0209154
X0517717Y0207677
X0507382Y0209154
Y0228346
X0521161Y0221949
X0534449Y0209646
X0542815Y0212598
X0552165Y0191929
X0522146Y0189961
X0517224
X0578307Y0205157
X0593996Y020374
X0598917Y0205217
X0612205Y0204232
X0615Y0206129
X0623524Y0205709
X0629921Y0204232
X0633858Y0204724
X0637303Y0205217
X0640748Y0204724
X0648634Y0204724
X0648622Y0190453
X0640748Y0190945
X0657972Y0189961
X0619585Y0190482
X0604331Y0190453
X0597441
X0591535Y0192421
X0608076Y0197825
X0605315Y021752
X0604823Y0236221
X0627461Y0236713
X0628908Y0245895
X0636319Y0245571
X0639764Y0255906
X0619095Y0258858
X0611221
X0607776Y0262795
X0603839Y0258858
X0596457
X0589075Y025935
X0579724Y0256398
X0578307Y0238248
X0620079Y0244094
X0627461Y0222933
X0627953Y0216535
X0638287Y0223425
Y0230315
X0657357Y0236409
X0591535Y0272638
Y0278051
Y0283465
Y0292323
Y0297736
Y0306594
Y0312008
Y0320866
X0591595Y0324311
Y0333169
X0627953Y0337598
Y032874
X0626476Y0322342
Y0313484
X0509842Y0329232
X0724902Y0334154
X0725886Y0337106
X0731299Y0340551
X0717993Y034498
X0747539Y0343996
X0758041Y0344656
X075827Y0336327
X0778051Y0308563
X0771161Y0272146
X0771654Y0260335
X0770177Y0248524
X078002Y0248031
X0781004Y0237205
X0778543Y0231791
X0783957Y0230807
X0788878Y0228346
X0791831Y0228839
X0790846Y0236221
X0790354Y021998
X0792815Y0211614
X0788878Y0210138
X0785433
X0782395Y0210906
X0779528Y0210138
X0774114Y0209646
Y0214075
X0775354Y0218741
X0778051Y021998
X0770177Y0222933
X075935Y0222441
X0755413Y0209646
X0748032
X0746063Y0214075
X0743602Y0218996
X0738189Y0214075
X0738681Y020628
X0730315Y0206841
X07264Y0204407
X0723704Y0212096
X0716535Y0211614
X0721457Y021998
X0707185Y0204724
X0699803
X0714075Y019439
X0720472Y0190945
X073376Y0193405
X0744587Y0194882
X0748524Y0196358
X0763779Y0195866
X0767717Y0192421
X0767185Y0202994
X0765256Y0210138
Y0233268
X0751968Y0236713
X074065Y0239173
X0749016Y0249016
X0754429Y0248524
X0757874Y0265256
X0758366Y0268701
X0802658Y0245079
Y0221457
X0799705Y021063
X0792815Y0195866
X0795768Y0192421
X0784449Y0194882
X0778543Y0195374
X0670797Y0205325
X0665354Y0217028
X066437Y0190453
X0820866Y0244587
X0808071Y0348425
X0810532Y0354823
X0757874Y035876
X0749016Y0364173
X0743995Y0360236
X0741026
X0734696Y0365508
X0741142Y0374016
X0726233Y0373971
X071777Y0382434
X070906Y0390642
X0702516Y0390754
X0702766Y0379596
X0690797
X0693898Y0373524
X0698819Y036565
X0707677Y0365158
X0711241Y0371145
X0690548Y0390754
X0678579
X0678829Y0379596
X066686
X0666611Y0390754
X0738194Y0347684
X0654892Y0379596
X0654642Y0390754
X0642674
X0642923Y0379596
X0630955
X0630705Y0390754
X0618737
X0618986Y0379596
X0607018
X0606768Y0390754
X05948
X0595049Y0379596
X0583081
X0582831Y0390754
X0570863
X0571112Y0379596
X0559144
X0558894Y0390754
X0546926
X0547175Y0379596
X0535207
X0534957Y0390754
X0522989
X0523238Y0379596
X051127
X051102Y0390754
X0499052
X0499301Y0379596
X0487333
X0487083Y0390754
X0475115
X0475364Y0379596
X0463396
X0463146Y0390754
X0451178
X0451427Y0379596
X0439459
X0439209Y0390754
X0427241
X042749Y0379596
X0415522
X0415272Y0390754
X0403304
X0403553Y0379596
X0391585
X0391335Y0390754
X0379367
X0379616Y0379596
X0367648
X0367398Y0390754
X035543
X0355679Y0379596
X0403051Y0356299
X0405512Y0358268
X0398622Y0346457
X0432579Y0347441
X0430118Y0353346
X0427658Y0355315
X0476378Y0359744
X0343711Y0379596
X0343461Y0390754
X0331493
X0331742Y0379596
X0319774
X0319524Y0390754
X0307556
X0307805Y0379596
X0295837
X0295587Y0390754
X0283619
X0283868Y0379596
X02719
X027165Y0390754
X0259682
X0259931Y0379596
X0247963
X0247713Y0390754
X0235745
X0235994Y0379596
X0224026
X0223776Y0390754
X0211808
X0212057Y0379596
X0200089
X0199839Y0390754
X0208661Y0350394
X0226378Y0349902
X018812Y0379596
X0187871Y0390754
X0176055Y038885
X0165825Y0389172
X0165686Y0376222
X0167655Y0373761
X0169291Y0370079
X0166339Y036565
X0159428Y0372932
X0157972Y0357283
X0141732Y0359744
Y0363189
X013435Y0362205
X0136319Y0357776
X0135827Y0350886
X0122047Y0348425
X0104823Y034941
X0098425Y0348917
X0094488
X009941Y0358268
X0089075Y0362205
X0067421Y0346949
X0045768Y0347441
X0123031Y0366634
X0149585Y038868
X0177657Y0375492
X0180626
X0176181Y0372539
X0032026Y0348713
T02
X0522618Y0255315
X0526181
X0524402Y0259154
X0520839
X0522618Y0262992
X0526181Y0262992
X0527965Y0259154
X0554992Y0259154
X0558555
X0562118
X0560335Y0262992
X0556772Y0262992
Y0255315
X0560335
T03
X0005Y0027
X0105
X0255
X033
X0405
X048
X063
X068
X0705
X08175Y0102
X07925
X0805Y0127
Y0177
X0755Y0127
X05675Y0152
X0542773Y0147197
X0512795Y0133858
X0572342Y0186516
X05675Y0052
X04925
X048Y0077
X0441437Y0054134
X0417815
X040748Y0054626
X0379921Y0053642
X03675Y0102
X0490158Y01875
X0281496Y0167323
X0262303Y017126
X0249508Y0181102
X0218012Y0164862
X0207677Y0167323
X03175Y0102
X01425Y0152
X0105Y0127
Y0077
X00925Y0052
X00675
X0047244Y0054134
X004626Y0042815
X0040354Y0047244
X0043307Y0140256
X0068044Y0146155
X0084646Y0158841
Y0180888
X0006398Y014124
X0005Y0127
X0035433Y0052658
X0007382Y0190453
X0005Y0227
X003
Y0277
X0005
Y0327
X0091043Y0267717
X01425Y0302
X018Y0327
Y0277
X00675Y0202
X0052165Y0190453
X01925Y0302
X0205Y0327
X023
X028
X03175Y0302
X03425
X02925Y0252
X0405Y0277
X04425Y0302
X04675
X0505Y0277
X05425Y0302
X0570374Y0329232
X0645Y0327
X0655
X066Y0337
X0642224Y033809
X0645Y0307
X0655
X066Y0317
Y0297
X065
X0655Y0287
X0645
X065Y0277
X066
X0640256Y0269193
X065Y0257
X0675Y0267
X067Y0277
Y0297
X0675Y0307
X0665
Y0327
X0675
X0675689Y0318406
X069Y0317
X07
X071
X072
X073
X0727362Y030561
Y0294783
Y0285925
X0738189
Y0294783
X0749016
Y0285925
X0755Y0287
X075Y0277
X074
X073
X072
X071
X0699311Y0274114
X0690453Y0283465
X0705Y0287
X0715
X072Y0297
X071
X0715Y0307
X0705
X0715551Y0322835
X072Y0337
X073
X0735Y0327
X0738189Y030561
X0749016
X071Y0337
X07
X069
X067815Y033809
X0695Y0327
X08175Y0202
X07925Y0352
X0805Y0377
X0755
X073
X0645Y0347
X0635
X0615
X0605
X0595
X0585
X0575
X0565
X0555
X0545
X0535
X054Y0357
X056
X058
X061
X04675Y0352
X0468012Y0367618
X04175Y0352
X03675
X03425
X02925
X02425
X0227854Y0367618
X0205Y0377
X01925Y0352
X010187Y0379429
X008Y0377
X0055
X003
X0005
T05
X0130748Y0020591
Y0025591
X0135748
X0135748Y0020591
X0140748Y0020591
Y0025591
X0145748Y0025591
X0145748Y0020591
X0150748
Y0025591
T06
X0765689Y0329508
Y0339508
X0775689Y0334508
Y0324508
Y0344508
Y0354508
X0765689Y0349508
Y0359508
T07
X0167323Y0021496
Y0031496
X0218012Y0031161
Y0021161
X0250492Y0021339
Y0031339
Y0041339
Y0051339
Y0061339
X0154527Y0063976
Y0073976
Y0053976
Y0043976
X0576614Y0197835
X0586614
X0686517Y032874
X0706201
X0725394
X0745079
T09
X0710138Y0135827
Y0145669
Y0155512
Y0165354
X0589075Y0166831
Y0156988
Y0147146
Y0176673
X0073327Y028061
X0063484
X0053642
Y0315059
X0063484
X0073327
X0252474Y0295589
Y0285747
Y0275904
Y0266062
X0315802
Y0275904
Y0285747
Y0295589
X0379621
Y0285747
Y0275904
Y0266062
X044344
Y0275904
Y0285747
Y0295589
T10
X081998Y0315945
Y0325945
Y035811
Y036811
X0033465Y0370571
Y0360571
T11
X0672165Y0138605
Y0148605
X0682165Y0148605
Y0158605
X0672165Y0158605
X0672165Y0168605
X0682165
Y0138605
X0494173Y0126476
X0484173
X0474173
X0474173Y0116476
X0464173
X0454173
Y0126476
X0464173
X0444173
X0434173
X0424173
X0424173Y0116476
X0414173
X0404173
X0394173
X0384173
X0374173
X0364173
Y0126476
X0354173
X0354173Y0116476
X0374173Y0126476
X0384173
X0394173
X0404173
X0414173
X0434173Y0116476
X0444173
X0484173
X0494173
X0344173
X0334173
X0324173
X0314173
X0304173
X0304173Y0126476
X0314173
X0324173
X0334173
X0344173
X0325617Y0326949
Y0336949
X0315617
Y0326949
X0261968
Y0336949
X0251969
Y0326949
X0379265
X0389265
Y0336949
X0379265
X0442913
X0452913
Y0326949
X0442913Y0326949
Y0346949
Y0356949
X0452913
Y0346949
X0389265
X0379265
Y0356949
X0389265
X0325617
Y0346949
X0315617
Y0356949
X0261968
Y0346949
X0251969
Y0356949
T12
X055315Y0157815
Y0167815
T13
X0266004Y0031988
X0281004
X0306401Y0031956
X0321401
X0342028Y0031988
X0357028
X0377461
X0392461
X0412894
X0427894
X0453484
X0468484
X0494075
X0509075
X0524075
X0539075
X0554075
X0569075
X0584075
X0609665
X0624665
X0639665
X0654665
X0669665
X0725394
X0740394
X0755394
X0770394
X0812435Y0152323
Y0167323
Y0182323
X0017224Y0213347
X0017224Y0228346
X0017323Y0276358
Y0291358
Y0306358
Y0321358
Y0336358
X0602618Y0307579
X0617618
X0812435Y0237913
Y0222913
Y0207913
X0708327Y0353733
X0693327
X0638713Y0353839
X0623713
X0603137
X0588137
X0567561
X0552561
X0531985
X0516985
X0067658Y0358268
X0052658
X0017323Y0351358
Y0366358
T14
X0788681Y0311536
X0788681Y037252
T15
X0803008Y0271741
Y0291741
T16
X0779468Y0089272
Y0107776
Y0126279
X0816988Y013378
Y0081772
T17
X0660921Y0263287
X0692421
X069402Y0296535
X069402Y0230039
X0731421Y0263287
T18
X0020768Y0026024
Y0048779
T19
X0668421Y0288886
X072352Y0237689
T20
X0818157Y0020965
Y0068603
X0012095Y0075645
Y0123283
T21
X0800689Y0319528
Y0364528
T22
X0081201Y0032972
X0714075Y0060039
X0042815Y0243602
X0665846Y0357283
M30
